Coordinates
version=1
nRows=23
nColumns=27
inDegrees=yes

Units are S.I. units (second, meters, Newtons, ...)
If the header above contains a line with 'inDegrees', this indicates whether rotational values are in degrees (yes) or radians (no).

endheader
time	pelvis_rotation	pelvis_tilt	pelvis_list	pelvis_tx	pelvis_ty	pelvis_tz	hip_flexion_r	hip_adduction_r	hip_rotation_r	knee_angle_r	knee_rotation_r	knee_adduction_r	knee_angle_r_beta	ankle_angle_r	subtalar_angle_r	mtp_angle_r	hip_flexion_l	hip_adduction_l	hip_rotation_l	knee_angle_l	knee_rotation_l	knee_adduction_l	knee_angle_l_beta	ankle_angle_l	subtalar_angle_l	mtp_angle_l
      3.25500000	      1.73549403	    -24.59665091	      2.62477880	      0.08307196	      0.82619261	     -1.17283521	     41.82972610	    -30.62218931	    -31.93438153	     26.59167884	      0.00000000	      7.71270229	      0.46411235	     -4.56153864	      0.00000000	      0.00000000	     42.11747675	    -20.10053722	    -11.86904700	     19.39792010	      0.00000000	     -0.04005138	      0.33855757	     -7.86949729	      0.00000000	      0.00000000
      3.26000000	      1.78508160	    -24.99590403	      2.70569714	      0.08178043	      0.82535918	     -1.17282663	     42.67202610	    -30.87236253	    -31.72649978	     27.18408089	      0.00000000	      7.80505643	      0.47445172	     -4.40536665	      0.00000000	      0.00000000	     42.95857644	    -20.14346485	    -11.94979281	     20.00138666	      0.00000000	     -0.33226970	      0.34909005	     -7.67891081	      0.00000000	      0.00000000
      3.26500000	      1.83833129	    -25.38131774	      2.77089099	      0.08049974	      0.82447687	     -1.17278311	     43.48781722	    -31.11043752	    -31.54141885	     27.76917072	      0.00000000	      7.89545121	      0.48466346	     -4.24702415	      0.00000000	      0.00000000	     43.79716142	    -20.20319750	    -12.03030875	     20.61213247	      0.00000000	     -0.64482506	      0.35974958	     -7.49060080	      0.00000000	      0.00000000
      3.27000000	      1.87829646	    -25.70394546	      2.78685076	      0.07931460	      0.82361359	     -1.17266961	     44.18850951	    -31.28797213	    -31.39537057	     28.29887078	      0.00000000	      7.98311864	      0.49390847	     -4.09777179	      0.00000000	      0.00000000	     44.56757666	    -20.31242880	    -12.12585956	     21.20836953	      0.00000000	     -0.99263115	      0.37015588	     -7.30241277	      0.00000000	      0.00000000
      3.27500000	      1.92992774	    -26.02541145	      2.77559882	      0.07811857	      0.82270059	     -1.17252722	     44.86961692	    -31.44707965	    -31.28078154	     28.83164491	      0.00000000	      8.06509976	      0.50320713	     -3.95091764	      0.00000000	      0.00000000	     45.36705772	    -20.44584311	    -12.19041627	     21.83355153	      0.00000000	     -1.35309255	      0.38106736	     -7.10211533	      0.00000000	      0.00000000
      3.28000000	      1.97940076	    -26.34884460	      2.78440759	      0.07691076	      0.82174782	     -1.17238665	     45.57690935	    -31.63390709	    -31.15623833	     29.39016284	      0.00000000	      8.14805014	      0.51295511	     -3.79139396	      0.00000000	      0.00000000	     46.15581669	    -20.56497599	    -12.27574669	     22.44171709	      0.00000000	     -1.71117569	      0.39168185	     -6.91189482	      0.00000000	      0.00000000
      3.28500000	      1.49370479	    -27.26922765	      3.09696536	      0.07434558	      0.82038249	     -1.17227307	     47.76135658	    -31.76443188	    -29.22633585	     30.27724755	      0.00000000	      7.39474481	      0.52843766	     -3.63087987	      0.00000000	      0.00000000	     47.34675483	    -20.69386261	    -12.95500972	     23.16643888	      0.00000000	     -1.87553989	      0.40433063	     -6.71604435	      0.00000000	      0.00000000
      3.29000000	      1.83155714	    -26.75750191	      2.87099028	      0.07493928	      0.81990370	     -1.17205486	     46.86570272	    -31.93982023	    -30.57024346	     30.42549957	      0.00000000	      8.28742851	      0.53102514	     -3.48793515	      0.00000000	      0.00000000	     47.22556744	    -20.86170014	    -12.97250966	     23.49408768	      0.00000000	     -2.61054302	      0.41004918	     -6.53419878	      0.00000000	      0.00000000
      3.29500000	      1.78797980	    -27.06103127	      2.92641539	      0.07377789	      0.81888235	     -1.17190832	     47.64713129	    -32.12052277	    -30.26172289	     31.00167464	      0.00000000	      8.35454471	      0.54108130	     -3.31617297	      0.00000000	      0.00000000	     47.89410905	    -20.98678176	    -13.20908717	     24.03560409	      0.00000000	     -2.97364696	      0.41950043	     -6.36443318	      0.00000000	      0.00000000
      3.30000000	      1.75999601	    -28.10281386	      3.02246283	      0.07091617	      0.81731909	     -1.17184452	     49.56715184	    -32.26772153	    -29.14222684	     31.84456509	      0.00000000	      7.68050217	      0.55579251	     -3.22639465	      0.00000000	      0.00000000	     49.64807672	    -21.09643555	    -12.92610217	     24.97702196	      0.00000000	     -2.84072797	      0.43593127	     -6.17814186	      0.00000000	      0.00000000
      3.30500000	      1.77422169	    -27.43984719	      2.78523213	      0.07181349	      0.81691500	     -1.17150728	     48.65652062	    -32.28270425	    -30.04659767	     31.93938541	      0.00000000	      8.48816056	      0.55744744	     -3.02509417	      0.00000000	      0.00000000	     49.12970353	    -21.41471145	    -13.46025626	     25.19503944	      0.00000000	     -3.77929164	      0.43973639	     -5.98077687	      0.00000000	      0.00000000
      3.31000000	      1.94292828	    -27.68846858	      2.56662349	      0.07069077	      0.81586164	     -1.17132846	     49.02091120	    -32.32958912	    -30.31072889	     32.35832614	      0.00000000	      8.56534129	      0.56475933	     -2.94848343	      0.00000000	      0.00000000	     50.00873087	    -21.64897256	    -13.12356684	     25.86108420	      0.00000000	     -4.02270730	      0.45136107	     -5.75873707	      0.00000000	      0.00000000
      3.31500000	      1.93027629	    -27.91921332	      2.56795778	      0.06963025	      0.81482208	     -1.17122156	     49.63758551	    -32.46969303	    -30.09692787	     32.86215315	      0.00000000	      8.62723707	      0.57355277	     -2.80151518	      0.00000000	      0.00000000	     50.63308690	    -21.80578118	    -13.27283611	     26.40958140	      0.00000000	     -4.39060997	      0.46093415	     -5.59080786	      0.00000000	      0.00000000
      3.32000000	      1.70089435	    -28.91708291	      2.86009201	      0.06686996	      0.81323639	     -1.17129993	     51.78021200	    -32.66457901	    -28.52297939	     33.74586257	      0.00000000	      7.94283663	      0.58897641	     -2.68102119	      0.00000000	      0.00000000	     52.04456170	    -21.83003908	    -13.36092247	     27.12287831	      0.00000000	     -4.20196054	      0.47338353	     -5.46497411	      0.00000000	      0.00000000
      3.32500000	      1.91661206	    -28.31955401	      2.43421487	      0.06764784	      0.81275713	     -1.17103579	     50.66551622	    -32.64831272	    -29.87984645	     33.75915818	      0.00000000	      8.74598431	      0.58920846	     -2.58949985	      0.00000000	      0.00000000	     51.86860372	    -22.20289110	    -13.40046764	     27.51686079	      0.00000000	     -5.04956547	      0.48025982	     -5.22128593	      0.00000000	      0.00000000
      3.33000000	      1.76021027	    -28.58233987	      2.65193429	      0.06655934	      0.81163926	     -1.17112970	     51.59672142	    -32.90101084	    -29.23264035	     34.35519783	      0.00000000	      8.77697505	      0.59961132	     -2.45052125	      0.00000000	      0.00000000	     52.32107556	    -22.27547589	    -13.90695070	     27.97257290	      0.00000000	     -5.39168848	      0.48821350	     -5.06419863	      0.00000000	      0.00000000
      3.33500000	      1.51587999	    -29.66396402	      3.09794342	      0.06366348	      0.80993998	     -1.17135023	     54.00374895	    -33.17396611	    -27.42815752	     35.30808998	      0.00000000	      8.09267184	      0.61624242	     -2.32135847	      0.00000000	      0.00000000	     53.72632754	    -22.20268839	    -14.06375914	     28.63440223	      0.00000000	     -5.08618273	      0.49976460	     -4.95428162	      0.00000000	      0.00000000
      3.34000000	      1.63831392	    -28.93569978	      2.54504487	      0.06472059	      0.80956573	     -1.17104561	     52.63662242	    -33.03592415	    -28.85834536	     35.20854148	      0.00000000	      8.88202883	      0.61450497	     -2.25535443	      0.00000000	      0.00000000	     53.38752167	    -22.71449027	    -14.22181698	     29.01328240	      0.00000000	     -6.07705097	      0.50637730	     -4.69116452	      0.00000000	      0.00000000
      3.34500000	      1.30832785	    -30.99596279	      3.28625214	      0.06031289	      0.80689837	     -1.17153120	     56.79506914	    -33.49924092	    -26.16774816	     36.74104972	      0.00000000	      8.08489006	      0.64125229	     -2.05698165	      0.00000000	      0.00000000	     56.01210473	    -22.62722487	    -14.58638311	     30.22115381	      0.00000000	     -5.78792575	      0.52745864	     -4.28712325	      0.00000000	      0.00000000
      3.35000000	      1.49859469	    -29.47526431	      2.67189953	      0.06258725	      0.80734252	     -1.17123131	     54.13368213	    -33.34245780	    -28.11522833	     36.19541470	      0.00000000	      8.95872533	      0.63172916	     -2.07028619	      0.00000000	      0.00000000	     54.55357549	    -23.01008712	    -14.70861883	     30.02941597	      0.00000000	     -6.65673996	      0.52411218	     -4.40183014	      0.00000000	      0.00000000
      3.35500000	      1.35457578	    -30.35902913	      2.87665045	      0.06009282	      0.80575612	     -1.17133312	     55.97657021	    -33.43761108	    -26.79572846	     36.91392592	      0.00000000	      8.34670866	      0.64426955	     -1.98256473	      0.00000000	      0.00000000	     55.85794654	    -23.06578479	    -14.60863533	     30.66383547	      0.00000000	     -6.35434876	      0.53518489	     -4.29001800	      0.00000000	      0.00000000
      3.36000000	      1.58135966	    -29.87403472	      2.62516277	      0.06073659	      0.80514762	     -1.17131236	     55.12428221	    -33.61037142	    -27.90064594	     37.02578307	      0.00000000	      9.05643657	      0.64622182	     -1.87773847	      0.00000000	      0.00000000	     55.73828379	    -23.32252263	    -14.78840499	     31.04671782	      0.00000000	     -7.23961539	      0.54186745	     -4.05962534	      0.00000000	      0.00000000
      3.36500000	      1.54403628	    -30.11591490	      2.68779132	      0.05974000	      0.80399289	     -1.17139334	     55.81403805	    -33.76151185	    -27.55064485	     37.49635328	      0.00000000	      9.08348634	      0.65443482	     -1.77910326	      0.00000000	      0.00000000	     56.28612679	    -23.47308123	    -15.03177170	     31.52714009	      0.00000000	     -7.54499178	      0.55025240	     -3.91240790	      0.00000000	      0.00000000
